<svg xmlns="http://www.w3.org/2000/svg" viewBox="0 0 600 800" width="600" height="800" role="img" aria-label="Disco Hajó">
  <defs>
    <linearGradient id="bg" x1="0" y1="0" x2="1" y2="1"><stop offset="0" stop-color="#facc15"/><stop offset="1" stop-color="#f472b6"/></linearGradient>
    <radialGradient id="glow" cx="0.75" cy="0.2" r="0.7"><stop offset="0" stop-color="#ffffff" stop-opacity="0.35"/><stop offset="1" stop-color="#ffffff" stop-opacity="0"/></radialGradient>
    <linearGradient id="shade" x1="0" y1="0" x2="0" y2="1"><stop offset="0.45" stop-color="#000" stop-opacity="0"/><stop offset="1" stop-color="#000" stop-opacity="0.55"/></linearGradient>
  </defs>
  <rect width="600" height="800" fill="url(#bg)"/>
  <rect width="600" height="800" fill="url(#glow)"/>
  
  <circle cx="386" cy="311" r="19" fill="#1a1033" opacity="0.111"/><circle cx="277" cy="166" r="77" fill="#1a1033" opacity="0.096"/><circle cx="168" cy="21" r="64" fill="#1a1033" opacity="0.082"/><circle cx="59" cy="676" r="51" fill="#1a1033" opacity="0.067"/><circle cx="550" cy="531" r="39" fill="#1a1033" opacity="0.053"/><circle cx="442" cy="386" r="26" fill="#1a1033" opacity="0.118"/><circle cx="333" cy="241" r="13" fill="#1a1033" opacity="0.104"/><circle cx="224" cy="96" r="71" fill="#1a1033" opacity="0.089"/><circle cx="115" cy="751" r="58" fill="#1a1033" opacity="0.075"/><circle cx="6" cy="606" r="45" fill="#1a1033" opacity="0.060"/><circle cx="498" cy="461" r="33" fill="#1a1033" opacity="0.045"/><circle cx="389" cy="316" r="20" fill="#1a1033" opacity="0.111"/><circle cx="280" cy="170" r="77" fill="#1a1033" opacity="0.096"/><circle cx="171" cy="25" r="64" fill="#1a1033" opacity="0.082"/><circle cx="62" cy="680" r="52" fill="#1a1033" opacity="0.067"/><circle cx="554" cy="535" r="39" fill="#1a1033" opacity="0.053"/><circle cx="445" cy="390" r="26" fill="#1a1033" opacity="0.118"/><circle cx="336" cy="245" r="14" fill="#1a1033" opacity="0.104"/>
  <text x="48" y="96" font-size="140" fill="#1a1033" opacity="0.18" font-weight="900">★</text>
  <rect width="600" height="800" fill="url(#shade)"/>
  <g fill="#1a1033" font-family="Inter, 'Segoe UI', system-ui, sans-serif" style="letter-spacing:-0.02em">
    <text x="48" y="330" font-size="26" font-weight="700" opacity="0.85" style="letter-spacing:0.18em">RETRO</text>
    <text x="48" y="430" font-size="88" font-weight="800">DISCO HAJÓ</text>
    <text x="48" y="700" font-size="28" font-weight="600" opacity="0.92">SZOM · 09.19. · 21:00</text>
    <text x="48" y="744" font-size="28" font-weight="600" opacity="0.92">Rakpart 9</text>
  </g>
</svg>