<svg xmlns="http://www.w3.org/2000/svg" viewBox="0 0 600 800" width="600" height="800" role="img" aria-label="Gólyabuli 2026">
  <defs>
    <linearGradient id="bg" x1="0" y1="0" x2="1" y2="1"><stop offset="0" stop-color="#06b6d4"/><stop offset="1" stop-color="#84cc16"/></linearGradient>
    <radialGradient id="glow" cx="0.75" cy="0.2" r="0.7"><stop offset="0" stop-color="#ffffff" stop-opacity="0.35"/><stop offset="1" stop-color="#ffffff" stop-opacity="0"/></radialGradient>
    <linearGradient id="shade" x1="0" y1="0" x2="0" y2="1"><stop offset="0.45" stop-color="#000" stop-opacity="0"/><stop offset="1" stop-color="#000" stop-opacity="0.25"/></linearGradient>
  </defs>
  <rect width="600" height="800" fill="url(#bg)"/>
  <rect width="600" height="800" fill="url(#glow)"/>
  <g opacity="0.10" stroke="#06202a" stroke-width="18"><line x1="-144" y1="900" x2="400" y2="-100"/><line x1="20" y1="900" x2="560" y2="-100"/><line x1="124" y1="900" x2="720" y2="-100"/><line x1="288" y1="900" x2="880" y2="-100"/><line x1="452" y1="900" x2="1040" y2="-100"/><line x1="617" y1="900" x2="1200" y2="-100"/><line x1="781" y1="900" x2="1360" y2="-100"/></g>
  <circle cx="547" cy="571" r="46" fill="#06202a" opacity="0.066"/><circle cx="589" cy="627" r="51" fill="#06202a" opacity="0.071"/><circle cx="31" cy="684" r="56" fill="#06202a" opacity="0.077"/><circle cx="73" cy="740" r="61" fill="#06202a" opacity="0.082"/><circle cx="115" cy="796" r="66" fill="#06202a" opacity="0.088"/><circle cx="157" cy="52" r="71" fill="#06202a" opacity="0.094"/><circle cx="199" cy="108" r="76" fill="#06202a" opacity="0.099"/><circle cx="241" cy="164" r="11" fill="#06202a" opacity="0.105"/><circle cx="283" cy="220" r="15" fill="#06202a" opacity="0.111"/><circle cx="325" cy="276" r="20" fill="#06202a" opacity="0.116"/><circle cx="367" cy="332" r="25" fill="#06202a" opacity="0.042"/><circle cx="409" cy="388" r="30" fill="#06202a" opacity="0.047"/><circle cx="451" cy="444" r="35" fill="#06202a" opacity="0.053"/><circle cx="493" cy="500" r="40" fill="#06202a" opacity="0.059"/><circle cx="535" cy="556" r="45" fill="#06202a" opacity="0.064"/><circle cx="577" cy="612" r="50" fill="#06202a" opacity="0.070"/><circle cx="19" cy="668" r="55" fill="#06202a" opacity="0.075"/><circle cx="61" cy="724" r="60" fill="#06202a" opacity="0.081"/>
  <text x="300" y="470" text-anchor="middle" font-size="420" fill="#06202a" opacity="0.14" font-weight="900">⬢</text>
  <rect width="600" height="800" fill="url(#shade)"/>
  
</svg>