<svg xmlns="http://www.w3.org/2000/svg" viewBox="0 0 600 800" width="600" height="800" role="img" aria-label="Latin Night">
  <defs>
    <linearGradient id="bg" x1="0" y1="0" x2="1" y2="1"><stop offset="0" stop-color="#10b981"/><stop offset="1" stop-color="#f59e0b"/></linearGradient>
    <radialGradient id="glow" cx="0.75" cy="0.2" r="0.7"><stop offset="0" stop-color="#ffffff" stop-opacity="0.35"/><stop offset="1" stop-color="#ffffff" stop-opacity="0"/></radialGradient>
    <linearGradient id="shade" x1="0" y1="0" x2="0" y2="1"><stop offset="0.45" stop-color="#000" stop-opacity="0"/><stop offset="1" stop-color="#000" stop-opacity="0.25"/></linearGradient>
  </defs>
  <rect width="600" height="800" fill="url(#bg)"/>
  <rect width="600" height="800" fill="url(#glow)"/>
  <g opacity="0.10" stroke="#0b1a12" stroke-width="18"><line x1="-178" y1="900" x2="400" y2="-100"/><line x1="-24" y1="900" x2="560" y2="-100"/><line x1="131" y1="900" x2="720" y2="-100"/><line x1="285" y1="900" x2="880" y2="-100"/><line x1="500" y1="900" x2="1040" y2="-100"/><line x1="654" y1="900" x2="1200" y2="-100"/><line x1="808" y1="900" x2="1360" y2="-100"/></g>
  <circle cx="481" cy="91" r="40" fill="#0b1a12" opacity="0.099"/><circle cx="426" cy="17" r="33" fill="#0b1a12" opacity="0.092"/><circle cx="370" cy="743" r="27" fill="#0b1a12" opacity="0.084"/><circle cx="315" cy="669" r="20" fill="#0b1a12" opacity="0.077"/><circle cx="260" cy="596" r="14" fill="#0b1a12" opacity="0.069"/><circle cx="204" cy="522" r="77" fill="#0b1a12" opacity="0.062"/><circle cx="149" cy="448" r="71" fill="#0b1a12" opacity="0.055"/><circle cx="94" cy="374" r="65" fill="#0b1a12" opacity="0.047"/><circle cx="38" cy="301" r="58" fill="#0b1a12" opacity="0.120"/><circle cx="583" cy="227" r="52" fill="#0b1a12" opacity="0.113"/><circle cx="528" cy="153" r="45" fill="#0b1a12" opacity="0.105"/><circle cx="472" cy="79" r="39" fill="#0b1a12" opacity="0.098"/><circle cx="417" cy="5" r="32" fill="#0b1a12" opacity="0.090"/><circle cx="362" cy="732" r="26" fill="#0b1a12" opacity="0.083"/><circle cx="306" cy="658" r="19" fill="#0b1a12" opacity="0.076"/><circle cx="251" cy="584" r="13" fill="#0b1a12" opacity="0.068"/><circle cx="196" cy="510" r="76" fill="#0b1a12" opacity="0.061"/><circle cx="140" cy="437" r="70" fill="#0b1a12" opacity="0.054"/>
  <text x="300" y="470" text-anchor="middle" font-size="420" fill="#0b1a12" opacity="0.14" font-weight="900">✦</text>
  <rect width="600" height="800" fill="url(#shade)"/>
  
</svg>