<svg xmlns="http://www.w3.org/2000/svg" viewBox="0 0 600 800" width="600" height="800" role="img" aria-label="Techno Hajnal">
  <defs>
    <linearGradient id="bg" x1="0" y1="0" x2="1" y2="1"><stop offset="0" stop-color="#7c3aed"/><stop offset="1" stop-color="#22d3ee"/></linearGradient>
    <radialGradient id="glow" cx="0.75" cy="0.2" r="0.7"><stop offset="0" stop-color="#ffffff" stop-opacity="0.35"/><stop offset="1" stop-color="#ffffff" stop-opacity="0"/></radialGradient>
    <linearGradient id="shade" x1="0" y1="0" x2="0" y2="1"><stop offset="0.45" stop-color="#000" stop-opacity="0"/><stop offset="1" stop-color="#000" stop-opacity="0.55"/></linearGradient>
  </defs>
  <rect width="600" height="800" fill="url(#bg)"/>
  <rect width="600" height="800" fill="url(#glow)"/>
  
  <circle cx="487" cy="676" r="72" fill="#ffffff" opacity="0.113"/><circle cx="247" cy="357" r="44" fill="#ffffff" opacity="0.081"/><circle cx="8" cy="37" r="16" fill="#ffffff" opacity="0.049"/><circle cx="368" cy="518" r="58" fill="#ffffff" opacity="0.097"/><circle cx="129" cy="199" r="30" fill="#ffffff" opacity="0.065"/><circle cx="489" cy="679" r="72" fill="#ffffff" opacity="0.113"/><circle cx="250" cy="360" r="44" fill="#ffffff" opacity="0.081"/><circle cx="10" cy="41" r="16" fill="#ffffff" opacity="0.050"/><circle cx="371" cy="521" r="58" fill="#ffffff" opacity="0.098"/><circle cx="131" cy="202" r="30" fill="#ffffff" opacity="0.066"/><circle cx="492" cy="683" r="72" fill="#ffffff" opacity="0.114"/><circle cx="252" cy="363" r="44" fill="#ffffff" opacity="0.082"/><circle cx="13" cy="44" r="16" fill="#ffffff" opacity="0.050"/><circle cx="373" cy="525" r="58" fill="#ffffff" opacity="0.098"/><circle cx="134" cy="205" r="30" fill="#ffffff" opacity="0.066"/><circle cx="494" cy="686" r="72" fill="#ffffff" opacity="0.114"/><circle cx="255" cy="367" r="44" fill="#ffffff" opacity="0.082"/><circle cx="15" cy="48" r="17" fill="#ffffff" opacity="0.050"/>
  <text x="48" y="96" font-size="140" fill="#ffffff" opacity="0.18" font-weight="900">◆</text>
  <rect width="600" height="800" fill="url(#shade)"/>
  <g fill="#ffffff" font-family="Inter, 'Segoe UI', system-ui, sans-serif" style="letter-spacing:-0.02em">
    <text x="48" y="330" font-size="26" font-weight="700" opacity="0.85" style="letter-spacing:0.18em">TECHNO</text>
    <text x="48" y="430" font-size="88" font-weight="800">TECHNO HAJNAL</text>
    <text x="48" y="700" font-size="28" font-weight="600" opacity="0.92">VAS · 09.13. · 23:00</text>
    <text x="48" y="744" font-size="28" font-weight="600" opacity="0.92">Dobozgyár</text>
  </g>
</svg>